<svg width="18" height="18" id="google" viewBox="0 0 18 18" fill="none" xmlns="http://www.w3.org/2000/svg">
<g clip-path="url(#clip0_2499_55782)">
<path d="M17.8246 9.20719C17.8246 8.59539 17.775 7.98029 17.6691 7.37842H9.18005V10.8442H14.0414C13.8396 11.9619 13.1915 12.9507 12.2423 13.579V15.8278H15.1426C16.8457 14.2603 17.8246 11.9454 17.8246 9.20719Z" fill="#4285F4"/>
<path d="M9.17995 18.0005C11.6073 18.0005 13.6543 17.2035 15.1458 15.8278L12.2455 13.579C11.4386 14.128 10.3969 14.4389 9.18326 14.4389C6.83529 14.4389 4.84448 12.8548 4.13016 10.7251H1.13733V13.0433C2.66516 16.0824 5.77705 18.0005 9.17995 18.0005Z" fill="#34A853"/>
<path d="M4.12696 10.7255C3.74996 9.60776 3.74996 8.3974 4.12696 7.27963V4.96143H1.13743C-0.139072 7.50451 -0.139072 10.5006 1.13743 13.0437L4.12696 10.7255Z" fill="#FBBC04"/>
<path d="M9.17995 3.56224C10.4631 3.5424 11.7032 4.02523 12.6325 4.9115L15.202 2.34196C13.575 0.814129 11.4155 -0.0258495 9.17995 0.000606499C5.77705 0.000606499 2.66516 1.91867 1.13733 4.96111L4.12686 7.27931C4.83786 5.1463 6.83198 3.56224 9.17995 3.56224Z" fill="#EA4335"/>
</g>
<defs>
<clipPath id="clip0_2499_55782">
<rect width="18" height="18" fill="white"/>
</clipPath>
</defs>
</svg>
