<svg width="97" height="32" id="label" viewBox="0 0 97 32" fill="none" xmlns="http://www.w3.org/2000/svg">
<path d="M13.1144 20.0637C12.1542 20.3321 11.4283 21.0088 11.0695 21.4624C10.9179 21.6569 10.8503 21.9763 10.7326 22.1946C10.6806 22.2899 9.98199 23.64 9.35337 24.0435C8.65913 24.4845 8.03245 24.5802 7.69651 25.273C7.56136 25.5497 7.50496 25.854 7.54774 26.1452C7.61046 26.5905 7.90216 27.0101 8.49966 27.2702C9.49339 27.7039 13.0555 27.3067 15.0415 24.8535C15.6167 24.2579 15.8714 23.4105 15.975 22.6336C16.1899 21.0122 14.6915 19.6242 13.1144 20.0637Z" fill="#32ABF2"/>
<path d="M10.761 20.096C10.7901 20.0523 10.8193 20.0104 10.8495 19.957C10.8956 19.8763 10.9433 19.7849 10.9938 19.6871C10.2695 19.2262 9.22662 18.4051 9.18092 18.3691L9.10751 18.3123L9.11043 18.3084C9.04237 18.2534 8.9743 18.2024 8.90575 18.1431C8.7531 18.18 8.60627 18.2233 8.46869 18.2748C7.60574 18.5976 7.02525 19.1776 6.61347 19.6205C6.47588 19.7683 6.35775 19.9001 6.24982 20.0051C5.65864 20.5759 5.01009 20.9001 4.73054 21.0241C4.67366 21.0601 4.6158 21.0961 4.55698 21.132C3.52581 21.7621 3.58027 22.7641 3.69354 23.1491C3.80682 23.5342 4.24048 24.5702 5.69607 24.5444C6.82349 24.5245 8.05058 23.9251 8.54696 23.6557C8.54696 23.6557 10.6472 22.3081 11.429 20.6916C11.4304 20.6911 11.1635 20.4597 10.761 20.096Z" fill="#32ABF2"/>
<path d="M7.59752 16.5268C7.3311 16.1665 7.0958 15.815 6.92613 15.5481C6.85806 15.4402 6.80069 15.3473 6.75548 15.2715C6.55566 15.324 6.30675 15.4086 6.03449 15.5476C5.38011 15.8821 4.71114 16.0649 4.31346 15.9113C3.91626 15.7572 3.04213 15.3653 2.42129 15.8092C1.80045 16.2531 1.59967 17.0659 1.9429 17.6668C2.23801 18.1836 3.00275 18.9985 3.86667 19.33C3.86667 19.33 5.85072 20.2795 8.13231 18.3008C10.0979 16.5968 8.46436 16.5078 7.59752 16.5268Z" fill="#32ABF2"/>
<path d="M15.9848 23.1288C21.2681 23.1288 25.5511 18.8458 25.5511 13.5624C25.5511 8.27909 21.2681 3.99609 15.9848 3.99609C10.7014 3.99609 6.41846 8.27909 6.41846 13.5624C6.41846 18.8458 10.7014 23.1288 15.9848 23.1288Z" fill="#32ABF2"/>
<path d="M18.8558 20.0637C19.816 20.3321 20.5418 21.0088 20.9006 21.4624C21.0523 21.6569 21.1199 21.9763 21.2375 22.1946C21.2895 22.2899 21.9882 23.64 22.6168 24.0435C23.3105 24.4845 23.9377 24.5802 24.2736 25.273C24.4088 25.5497 24.4652 25.854 24.4224 26.1452C24.3597 26.5905 24.068 27.0101 23.4705 27.2702C22.4767 27.7039 18.9146 27.3067 16.9286 24.8535C16.3535 24.2579 16.0987 23.4105 15.9952 22.6336C15.7808 21.0122 17.2791 19.6242 18.8558 20.0637Z" fill="#32ABF2"/>
<path d="M21.209 20.096C21.1798 20.0523 21.1507 20.0104 21.1205 19.957C21.0743 19.8763 21.0267 19.7849 20.9761 19.6871C21.7005 19.2262 22.7434 18.4051 22.7891 18.3691L22.8625 18.3123L22.8595 18.3084C22.9276 18.2534 22.9957 18.2024 23.0637 18.1431C23.2164 18.18 23.3632 18.2233 23.5008 18.2748C24.3637 18.5976 24.9442 19.1776 25.356 19.6205C25.4936 19.7683 25.6117 19.9001 25.7197 20.0051C26.3109 20.5759 26.9594 20.9001 27.2389 21.0241C27.2958 21.0601 27.3537 21.0961 27.4125 21.132C28.4437 21.7621 28.3892 22.7641 28.2759 23.1491C28.1627 23.5342 27.729 24.5702 26.2734 24.5444C25.1465 24.5245 23.9189 23.9251 23.4225 23.6557C23.4225 23.6557 21.3218 22.3081 20.54 20.6916C20.5396 20.6911 20.8069 20.4597 21.209 20.096Z" fill="#32ABF2"/>
<path d="M24.3734 16.5268C24.6399 16.1665 24.8752 15.815 25.0448 15.5481C25.1129 15.4402 25.1703 15.3473 25.2155 15.2715C25.4153 15.324 25.6642 15.4086 25.9365 15.5476C26.5909 15.8821 27.2598 16.0649 27.6575 15.9113C28.0547 15.7572 28.9288 15.3653 29.5497 15.8092C30.1705 16.2531 30.3713 17.0659 30.0281 17.6668C29.733 18.1836 28.9682 18.9985 28.1043 19.33C28.1043 19.33 26.1202 20.2795 23.8387 18.3008C21.8731 16.5968 23.5066 16.5078 24.3734 16.5268Z" fill="#32ABF2"/>
<path d="M12.6877 14.185C13.1528 14.185 13.5298 13.7053 13.5298 13.1135C13.5298 12.5217 13.1528 12.042 12.6877 12.042C12.2227 12.042 11.8457 12.5217 11.8457 13.1135C11.8457 13.7053 12.2227 14.185 12.6877 14.185Z" fill="#34056F"/>
<path d="M13.0245 12.6556C13.0245 12.8661 12.8539 13.0367 12.6434 13.0367C12.4329 13.0367 12.2622 12.8661 12.2622 12.6556C12.2622 12.4451 12.4329 12.2744 12.6434 12.2744C12.8539 12.2739 13.0245 12.4446 13.0245 12.6556Z" fill="#F9F9F9"/>
<path d="M19.2825 14.185C19.7475 14.185 20.1245 13.7053 20.1245 13.1135C20.1245 12.5217 19.7475 12.042 19.2825 12.042C18.8174 12.042 18.4404 12.5217 18.4404 13.1135C18.4404 13.7053 18.8174 14.185 19.2825 14.185Z" fill="#34056F"/>
<path d="M19.6188 12.6556C19.6188 12.8661 19.4481 13.0367 19.2376 13.0367C19.0271 13.0367 18.8564 12.8661 18.8564 12.6556C18.8564 12.4451 19.0271 12.2744 19.2376 12.2744C19.4481 12.2739 19.6188 12.4446 19.6188 12.6556Z" fill="#F9F9F9"/>
<path d="M17.5336 16.4104C17.4534 17.3769 17.1282 18.6084 15.9857 18.6084C15.4217 18.6084 15.0571 18.3084 14.8232 17.8884C15.1072 17.2806 15.8588 16.1984 17.5336 16.4104Z" fill="#EB5A55"/>
<path d="M17.5334 16.4106C15.858 16.1986 15.1069 17.2808 14.823 17.8885C14.2736 16.9079 14.436 15.2715 14.436 15.2715C14.8983 15.4698 15.9854 15.4295 15.9854 15.4295C15.9854 15.4295 17.071 15.4698 17.5348 15.2715C17.5348 15.2715 17.5859 15.7863 17.5334 16.4106Z" fill="#79292A"/>
<path d="M44.0982 26.288C42.4182 26.288 40.8902 25.888 39.5142 25.088C38.1542 24.288 37.0902 23.184 36.3222 21.776C35.5542 20.368 35.1702 18.792 35.1702 17.048C35.1702 15.304 35.5542 13.728 36.3222 12.32C37.0902 10.912 38.1542 9.816 39.5142 9.032C40.8742 8.232 42.4022 7.832 44.0982 7.832C45.3302 7.832 46.4582 8.048 47.4822 8.48C48.5062 8.896 49.3702 9.464 50.0742 10.184C50.7942 10.888 51.3142 11.672 51.6342 12.536L48.7062 13.904C48.3542 12.976 47.7702 12.232 46.9542 11.672C46.1542 11.096 45.2022 10.808 44.0982 10.808C42.9942 10.808 42.0102 11.072 41.1462 11.6C40.2822 12.112 39.6102 12.84 39.1302 13.784C38.6662 14.728 38.4342 15.816 38.4342 17.048C38.4342 18.28 38.6662 19.368 39.1302 20.312C39.6102 21.256 40.2822 21.992 41.1462 22.52C42.0102 23.048 42.9942 23.312 44.0982 23.312C45.2022 23.312 46.1542 23.032 46.9542 22.472C47.7702 21.896 48.3542 21.144 48.7062 20.216L51.6342 21.584C51.3142 22.448 50.7942 23.24 50.0742 23.96C49.3702 24.664 48.5062 25.232 47.4822 25.664C46.4582 26.08 45.3302 26.288 44.0982 26.288ZM53.7802 7.832H56.9242V15.512L56.4922 15.056C56.7962 14.272 57.2842 13.68 57.9562 13.28C58.6442 12.864 59.4682 12.656 60.4282 12.656C61.3722 12.656 62.2202 12.864 62.9722 13.28C63.7242 13.696 64.3082 14.28 64.7242 15.032C65.1402 15.784 65.3482 16.64 65.3482 17.6V26H62.2042V18.344C62.2042 17.784 62.0922 17.296 61.8682 16.88C61.6442 16.448 61.3322 16.12 60.9322 15.896C60.5322 15.656 60.0762 15.536 59.5642 15.536C58.7802 15.536 58.1402 15.792 57.6442 16.304C57.1642 16.816 56.9242 17.496 56.9242 18.344V26H53.7802V7.832ZM71.7267 26.288C70.8147 26.288 70.0227 26.136 69.3507 25.832C68.6787 25.528 68.1587 25.096 67.7907 24.536C67.4227 23.96 67.2387 23.296 67.2387 22.544C67.2387 21.44 67.6147 20.536 68.3667 19.832C69.1187 19.112 70.2467 18.624 71.7507 18.368L76.0227 17.672V20.072L72.3507 20.696C71.7267 20.808 71.2627 21.008 70.9587 21.296C70.6547 21.584 70.5027 21.96 70.5027 22.424C70.5027 22.872 70.6707 23.232 71.0067 23.504C71.3427 23.76 71.7747 23.888 72.3027 23.888C72.9427 23.888 73.5187 23.752 74.0307 23.48C74.5427 23.192 74.9347 22.8 75.2067 22.304C75.4947 21.808 75.6387 21.264 75.6387 20.672V17.312C75.6387 16.752 75.4147 16.288 74.9667 15.92C74.5347 15.536 73.9587 15.344 73.2387 15.344C72.5667 15.344 71.9747 15.52 71.4627 15.872C70.9507 16.224 70.5667 16.704 70.3107 17.312L67.7427 16.064C68.1267 15.04 68.8307 14.216 69.8547 13.592C70.8787 12.968 72.0467 12.656 73.3587 12.656C74.4147 12.656 75.3507 12.856 76.1667 13.256C76.9987 13.64 77.6387 14.184 78.0867 14.888C78.5507 15.592 78.7827 16.4 78.7827 17.312V26H75.8067V23.768L76.4787 23.72C75.9667 24.568 75.3107 25.208 74.5107 25.64C73.7267 26.072 72.7987 26.288 71.7267 26.288ZM87.5206 26.288C86.2726 26.288 85.1446 25.992 84.1366 25.4C83.1446 24.792 82.3606 23.968 81.7846 22.928C81.2086 21.888 80.9206 20.736 80.9206 19.472C80.9206 18.208 81.2086 17.064 81.7846 16.04C82.3606 15 83.1526 14.176 84.1606 13.568C85.1686 12.96 86.2806 12.656 87.4966 12.656C88.4886 12.656 89.3686 12.856 90.1366 13.256C90.9206 13.64 91.5366 14.184 91.9846 14.888L91.5046 15.536V7.832H94.6486V26H91.6726V23.48L92.0086 24.104C91.5606 24.792 90.9366 25.328 90.1366 25.712C89.3526 26.096 88.4806 26.288 87.5206 26.288ZM87.8566 23.408C88.5606 23.408 89.1846 23.24 89.7286 22.904C90.2886 22.568 90.7206 22.104 91.0246 21.512C91.3446 20.904 91.5046 20.224 91.5046 19.472C91.5046 18.736 91.3446 18.064 91.0246 17.456C90.7206 16.848 90.2886 16.376 89.7286 16.04C89.1846 15.704 88.5606 15.536 87.8566 15.536C87.1526 15.536 86.5206 15.712 85.9606 16.064C85.4006 16.4 84.9606 16.864 84.6406 17.456C84.3366 18.048 84.1846 18.72 84.1846 19.472C84.1846 20.224 84.3366 20.904 84.6406 21.512C84.9606 22.104 85.4006 22.568 85.9606 22.904C86.5206 23.24 87.1526 23.408 87.8566 23.408Z" fill="#20496C"/>
</svg>
