<svg width="40" height="25" viewBox="0 0 40 25" id="sliderIcon" fill="none" xmlns="http://www.w3.org/2000/svg">
<path d="M8.504 24.884C7.224 24.884 6.008 24.6493 4.856 24.18C3.72533 23.7107 2.75467 23.0387 1.944 22.164C1.13333 21.2893 0.578667 20.2653 0.28 19.092L4.056 17.748C4.39733 18.7933 4.96267 19.5933 5.752 20.148C6.56267 20.6813 7.48 20.948 8.504 20.948C9.29333 20.948 10.008 20.7773 10.648 20.436C11.288 20.0733 11.7787 19.5827 12.12 18.964C12.4613 18.324 12.632 17.588 12.632 16.756C12.632 15.9453 12.4507 15.2307 12.088 14.612C11.7467 13.972 11.256 13.4813 10.616 13.14C9.99733 12.7773 9.29333 12.596 8.504 12.596C7.65067 12.596 6.88267 12.788 6.2 13.172C5.53867 13.5347 5.06933 14.0467 4.792 14.708L1.24 13.908L3.128 0.659998H16.12V4.34H4.856L6.488 2.42L5.144 12.436L3.896 11.412C4.472 10.5373 5.18667 9.89733 6.04 9.492C6.91467 9.08667 7.98133 8.884 9.24 8.884C10.776 8.884 12.1307 9.22533 13.304 9.908C14.4987 10.5693 15.416 11.4973 16.056 12.692C16.696 13.8867 17.016 15.2413 17.016 16.756C17.016 18.292 16.6427 19.6787 15.896 20.916C15.1707 22.1533 14.1573 23.124 12.856 23.828C11.5547 24.532 10.104 24.884 8.504 24.884ZM26.8163 12.5L19.0723 0.659998H24.0643L30.4003 10.356H28.0963L34.4003 0.659998H39.3923L31.6803 12.5L39.4563 24.5H34.4643L28.0963 14.676H30.4003L24.0003 24.5H19.0083L26.8163 12.5Z" fill="#96CAF7"/>
</svg>
